<svg width="512" height="512" viewBox="0 0 512 512" fill="none" xmlns="http://www.w3.org/2000/svg">
  <!-- gradient defs -->
  <defs>
    <linearGradient id="everpoolGrad" x1="120" y1="120" x2="360" y2="280" gradientUnits="userSpaceOnUse">
      <stop offset="0%" stop-color="#0FA36B"/>
      <stop offset="45%" stop-color="#11B28B"/>
      <stop offset="100%" stop-color="#18C5B1"/>
    </linearGradient>
  </defs>

  <!-- icon group -->
  <g transform="translate(80 60)">
    <!-- main infinity / pool shape -->
    <path
      d="M177 119.5C158 94 134 78 108 78C74 78 48 103 48 135C48 168 74 192 108 192C132 192 152 180 171 160C177 153 183 146 188 138C194 148 201 156 207 162C226 180 246 192 270 192C304 192 330 168 330 135C330 100 303 75 270 75C243 75 217 91 198 116"
      fill="none"
      stroke="url(#everpoolGrad)"
      stroke-width="30"
      stroke-linecap="round"
      stroke-linejoin="round"
    />
    <!-- leaf that flows through the loop -->
    <path
      d="M180 68C185 47 197 30 214 18C233 5 257 0 276 0C272 15 267 29 260 42C251 58 239 72 226 83C212 95 197 103 185 108L176 111L175 101C175 92 177 79 180 68Z"
      fill="url(#everpoolGrad)"
    />
  </g>

  <!-- EVERPOOL text -->
  <text
    x="256"
    y="430"
    text-anchor="middle"
    font-family="-apple-system, BlinkMacSystemFont, 'Segoe UI', Roboto, Oxygen, Ubuntu, Cantarell, 'Open Sans', 'Helvetica Neue', sans-serif"
    font-size="56"
    font-weight="700"
    fill="#101820">
    EVERPOOL
  </text>
</svg>
